<svg width="359" height="235" viewBox="0 0 359 235" fill="none" xmlns="http://www.w3.org/2000/svg">
<g clip-path="url(#clip0_1_191)">
<path d="M338.316 226.05H24.1726C19.9599 226.05 16.5497 222.65 16.5497 218.45V8.25002C16.5497 4.05002 19.9599 0.650024 24.1726 0.650024H338.316C342.529 0.650024 345.939 4.05002 345.939 8.25002V218.35C346.039 222.65 342.529 226.05 338.316 226.05Z" fill="#00D5E4"/>
<path d="M327.182 218.45H35.306C31.0933 218.45 27.6831 215.05 27.6831 210.85V15.95C27.6831 11.75 31.0933 8.35004 35.306 8.35004H327.182C331.395 8.35004 334.805 11.75 334.805 15.95V210.85C334.906 214.95 331.395 218.45 327.182 218.45Z" fill="#065090"/>
<path d="M115.948 29.55H75.6271V34.0501H115.948V29.55Z" fill="#FCFDFD"/>
<path d="M101.304 39.55H75.6271V44.05H101.304V39.55Z" fill="#FCFDFD"/>
<path d="M219.158 39.55H115.748V44.05H219.158V39.55Z" fill="#FCFDFD"/>
<path d="M283.351 39.55H229.188V44.05H283.351V39.55Z" fill="#FF6452"/>
<path d="M150.953 49.55H85.6572V54.05H150.953V49.55Z" fill="#00D050"/>
<path d="M268.306 49.55H171.014V54.05H268.306V49.55Z" fill="#FCFDFD"/>
<path d="M167.503 59.55H75.6271V64.05H167.503V59.55Z" fill="#FF6452"/>
<path d="M241.224 59.55H175.928V64.05H241.224V59.55Z" fill="#00D5E4"/>
<path d="M150.953 69.55H85.6572V74.05H150.953V69.55Z" fill="#FCFDFD"/>
<path d="M171.014 79.55H75.6271V84.05H171.014V79.55Z" fill="#FCFDFD"/>
<path d="M140.923 89.55H75.6271V94.05H140.923V89.55Z" fill="#FCFDFD"/>
<path d="M204.614 99.55H95.6873V104.05H204.614V99.55Z" fill="#FF6452"/>
<path d="M251.254 99.55H216.049V104.05H251.254V99.55Z" fill="#FCFDFD"/>
<path d="M301.405 99.55H266.199V104.05H301.405V99.55Z" fill="#FCFDFD"/>
<path d="M150.151 109.55H105.717V114.05H150.151V109.55Z" fill="#FCFDFD"/>
<path d="M164.995 119.55H105.717V124.05H164.995V119.55Z" fill="#FF6452"/>
<path d="M251.255 119.55H185.958V124.05H251.255V119.55Z" fill="#FCFDFD"/>
<path d="M293.381 119.55H266.199V124.05H293.381V119.55Z" fill="#FF6452"/>
<path d="M115.748 129.55H75.6271V134.05H115.748V129.55Z" fill="#FCFDFD"/>
<path d="M140.923 139.55H75.6271V144.05H140.923V139.55Z" fill="#FCFDFD"/>
<path d="M224.173 149.55H105.717V154.05H224.173V149.55Z" fill="#FCFDFD"/>
<path d="M309.429 149.55H236.109V154.05H309.429V149.55Z" fill="#00D5E4"/>
<path d="M145.938 159.55H105.717V164.05H145.938V159.55Z" fill="#FCFDFD"/>
<path d="M196.089 159.55H155.868V164.05H196.089V159.55Z" fill="#00D050"/>
<path d="M246.239 159.55H206.019V164.05H246.239V159.55Z" fill="#FCFDFD"/>
<path d="M140.923 169.55H75.6271V174.05H140.923V169.55Z" fill="#FCFDFD"/>
<path d="M160.983 179.55H95.6873V184.05H160.983V179.55Z" fill="#00D050"/>
<path d="M238.717 179.55H173.421V184.05H238.717V179.55Z" fill="#00D050"/>
<path d="M208.627 199.55H172.017V204.05H208.627V199.55Z" fill="#FCFDFD"/>
<path d="M192.578 189.55H95.6873V194.05H192.578V189.55Z" fill="#FCFDFD"/>
<path d="M50.4515 29.55H45.938V34.0501H50.4515V29.55Z" fill="#5E94C1"/>
<path d="M50.4515 39.55H45.938V44.05H50.4515V39.55Z" fill="#5E94C1"/>
<path d="M50.4515 49.55H45.938V54.05H50.4515V49.55Z" fill="#5E94C1"/>
<path d="M50.4515 59.55H45.938V64.05H50.4515V59.55Z" fill="#5E94C1"/>
<path d="M50.4515 69.55H45.938V74.05H50.4515V69.55Z" fill="#5E94C1"/>
<path d="M50.4515 79.55H45.938V84.05H50.4515V79.55Z" fill="#5E94C1"/>
<path d="M50.4515 89.55H45.938V94.05H50.4515V89.55Z" fill="#5E94C1"/>
<path d="M50.4515 99.55H45.938V104.05H50.4515V99.55Z" fill="#5E94C1"/>
<path d="M50.4515 109.55H45.938V114.05H50.4515V109.55Z" fill="#5E94C1"/>
<path d="M50.4515 119.55H45.938V124.05H50.4515V119.55Z" fill="#5E94C1"/>
<path d="M50.4515 129.55H45.938V134.05H50.4515V129.55Z" fill="#5E94C1"/>
<path d="M50.4515 139.55H45.938V144.05H50.4515V139.55Z" fill="#5E94C1"/>
<path d="M50.4515 149.55H45.938V154.05H50.4515V149.55Z" fill="#5E94C1"/>
<path d="M50.4515 159.55H45.938V164.05H50.4515V159.55Z" fill="#5E94C1"/>
<path d="M50.4515 169.55H45.938V174.05H50.4515V169.55Z" fill="#5E94C1"/>
<path d="M50.4515 179.55H45.938V184.05H50.4515V179.55Z" fill="#5E94C1"/>
<path d="M50.4515 189.55H45.938V194.05H50.4515V189.55Z" fill="#5E94C1"/>
<path d="M50.4515 199.55H45.938V204.05H50.4515V199.55Z" fill="#5E94C1"/>
<path d="M144.133 199.55H95.6873V204.05H144.133V199.55Z" fill="#FCFDFD"/>
<path d="M285.558 203.95L266.5 195.85V192.55L285.558 184.45V187.95L270.412 194.15L285.558 200.35V203.95Z" fill="#FCFDFD"/>
<path d="M298.998 179.65L290.673 208.35H287.864L296.189 179.65H298.998Z" fill="#FCFDFD"/>
<path d="M320.262 195.85L301.204 203.95V200.45L316.35 194.25L301.204 188.05V184.55L320.262 192.65V195.85Z" fill="#FCFDFD"/>
<path d="M338.015 234.35H20.0602C9.02711 234.35 0 225.35 0 214.35H358.075C358.075 225.45 349.048 234.35 338.015 234.35Z" fill="#00BBD3"/>
<g opacity="0.1">
<g opacity="0.1">
<path opacity="0.1" d="M129.79 218.45L204.614 8.25H176.229L101.404 218.45H129.79Z" fill="white"/>
</g>
<g opacity="0.1">
<path opacity="0.1" d="M35.4063 218.45H48.7464L123.571 8.25H35.4063C31.1936 8.25 27.7834 11.65 27.7834 15.85V210.75C27.6831 214.95 31.1936 218.45 35.4063 218.45Z" fill="white"/>
</g>
<g opacity="0.1">
<path opacity="0.1" d="M288.466 218.45H327.283C331.495 218.45 334.906 215.05 334.906 210.85V88.05L288.466 218.45Z" fill="white"/>
</g>
</g>
<g opacity="0.1">
<g opacity="0.1">
<path opacity="0.1" d="M184.855 218.45H236.911L311.736 8.25H259.68L184.855 218.45Z" fill="white"/>
</g>
</g>
<path d="M355.367 224.35C357.072 221.45 358.075 217.95 358.075 214.35H0C0 217.95 1.00301 221.45 2.70813 224.35H355.367Z" fill="#15D7E2"/>
</g>
<defs>
<clipPath id="clip0_1_191">
<rect width="358.075" height="233.7" fill="white" transform="translate(0 0.650024)"/>
</clipPath>
</defs>
</svg>
