<svg width="60" height="50" viewBox="0 0 60 50" fill="none" xmlns="http://www.w3.org/2000/svg">
<path d="M53.8324 12.7793C53.8705 13.3122 53.8705 13.8453 53.8705 14.3783C53.8705 30.6345 41.4975 49.3655 18.8832 49.3655C11.9162 49.3655 5.44418 47.3477 0 43.8453C0.989883 43.9594 1.94156 43.9975 2.96953 43.9975C8.71816 43.9975 14.0101 42.056 18.236 38.7438C12.8299 38.6295 8.29945 35.0889 6.73852 30.2158C7.5 30.33 8.26137 30.4061 9.06094 30.4061C10.165 30.4061 11.2691 30.2538 12.297 29.9874C6.66246 28.8452 2.43645 23.896 2.43645 17.9189V17.7666C4.07344 18.6803 5.97715 19.2514 7.99477 19.3275C4.68258 17.1193 2.51262 13.3503 2.51262 9.08632C2.51262 6.8021 3.12164 4.7082 4.1877 2.88078C10.241 10.3427 19.34 15.2157 29.543 15.7488C29.3527 14.8351 29.2384 13.8834 29.2384 12.9316C29.2384 6.15488 34.7207 0.634644 41.5354 0.634644C45.0759 0.634644 48.2739 2.11941 50.5201 4.51789C53.2992 3.98492 55.9642 2.95695 58.3247 1.54835C57.4109 4.40375 55.4693 6.80222 52.9186 8.32496C55.3932 8.05859 57.7917 7.37316 59.9998 6.42148C58.3249 8.85792 56.2309 11.0279 53.8324 12.7793Z" fill="white"/>
</svg>
