<svg width="68" height="53" viewBox="0 0 68 53" fill="none" xmlns="http://www.w3.org/2000/svg">
<g filter="url(#filter0_d_56934_7)">
<path d="M64.4356 7.54098C63.705 4.76949 61.5524 2.58676 58.8192 1.84602C53.8652 0.5 34 0.5 34 0.5C34 0.5 14.135 0.5 9.18081 1.84602C6.44765 2.58687 4.29504 4.76949 3.56444 7.54098C2.237 12.5645 2.237 23.0455 2.237 23.0455C2.237 23.0455 2.237 33.5265 3.56444 38.55C4.29504 41.3214 6.44765 43.4132 9.18081 44.154C14.135 45.5 34 45.5 34 45.5C34 45.5 53.865 45.5 58.8192 44.154C61.5524 43.4132 63.705 41.3214 64.4356 38.55C65.763 33.5265 65.763 23.0455 65.763 23.0455C65.763 23.0455 65.763 12.5645 64.4356 7.54098ZM27.503 32.5614V13.5295L44.1063 23.0457L27.503 32.5614Z" fill="white"/>
</g>
<defs>
<filter id="filter0_d_56934_7" x="-1.763" y="0.5" width="71.526" height="53" filterUnits="userSpaceOnUse" color-interpolation-filters="sRGB">
<feFlood flood-opacity="0" result="BackgroundImageFix"/>
<feColorMatrix in="SourceAlpha" type="matrix" values="0 0 0 0 0 0 0 0 0 0 0 0 0 0 0 0 0 0 127 0" result="hardAlpha"/>
<feOffset dy="4"/>
<feGaussianBlur stdDeviation="2"/>
<feComposite in2="hardAlpha" operator="out"/>
<feColorMatrix type="matrix" values="0 0 0 0 0 0 0 0 0 0 0 0 0 0 0 0 0 0 0.25 0"/>
<feBlend mode="normal" in2="BackgroundImageFix" result="effect1_dropShadow_56934_7"/>
<feBlend mode="normal" in="SourceGraphic" in2="effect1_dropShadow_56934_7" result="shape"/>
</filter>
</defs>
</svg>
